<svg id="visual" viewBox="0 0 3000 1800" width="3000" height="1800" xmlns="http://www.w3.org/2000/svg" xmlns:xlink="http://www.w3.org/1999/xlink" version="1.1"><rect x="0" y="0" width="3000" height="1800" fill="#001220"></rect><path d="M0 1234L71.5 1227.8C143 1221.7 286 1209.3 428.8 1189.8C571.7 1170.3 714.3 1143.7 857.2 1165.2C1000 1186.7 1143 1256.3 1285.8 1271C1428.7 1285.7 1571.3 1245.3 1714.2 1229.2C1857 1213 2000 1221 2142.8 1230.3C2285.7 1239.7 2428.3 1250.3 2571.2 1240.2C2714 1230 2857 1199 2928.5 1183.5L3000 1168L3000 1801L2928.5 1801C2857 1801 2714 1801 2571.2 1801C2428.3 1801 2285.7 1801 2142.8 1801C2000 1801 1857 1801 1714.2 1801C1571.3 1801 1428.7 1801 1285.8 1801C1143 1801 1000 1801 857.2 1801C714.3 1801 571.7 1801 428.8 1801C286 1801 143 1801 71.5 1801L0 1801Z" fill="#001122"></path><path d="M0 1247L71.5 1237.3C143 1227.7 286 1208.3 428.8 1200.7C571.7 1193 714.3 1197 857.2 1212C1000 1227 1143 1253 1285.8 1265.3C1428.7 1277.7 1571.3 1276.3 1714.2 1274.3C1857 1272.3 2000 1269.7 2142.8 1267C2285.7 1264.3 2428.3 1261.7 2571.2 1250.8C2714 1240 2857 1221 2928.5 1211.5L3000 1202L3000 1801L2928.5 1801C2857 1801 2714 1801 2571.2 1801C2428.3 1801 2285.7 1801 2142.8 1801C2000 1801 1857 1801 1714.2 1801C1571.3 1801 1428.7 1801 1285.8 1801C1143 1801 1000 1801 857.2 1801C714.3 1801 571.7 1801 428.8 1801C286 1801 143 1801 71.5 1801L0 1801Z" fill="#022f42"></path><path d="M0 1460L71.5 1445.5C143 1431 286 1402 428.8 1383.5C571.7 1365 714.3 1357 857.2 1355.3C1000 1353.7 1143 1358.3 1285.8 1369.7C1428.7 1381 1571.3 1399 1714.2 1402.2C1857 1405.3 2000 1393.7 2142.8 1386.5C2285.7 1379.3 2428.3 1376.7 2571.2 1381.7C2714 1386.7 2857 1399.3 2928.5 1405.7L3000 1412L3000 1801L2928.5 1801C2857 1801 2714 1801 2571.2 1801C2428.3 1801 2285.7 1801 2142.8 1801C2000 1801 1857 1801 1714.2 1801C1571.3 1801 1428.7 1801 1285.8 1801C1143 1801 1000 1801 857.2 1801C714.3 1801 571.7 1801 428.8 1801C286 1801 143 1801 71.5 1801L0 1801Z" fill="#005060"></path><path d="M0 1586L71.5 1572.5C143 1559 286 1532 428.8 1513.7C571.7 1495.3 714.3 1485.7 857.2 1481.8C1000 1478 1143 1480 1285.8 1503.2C1428.7 1526.3 1571.3 1570.7 1714.2 1578.8C1857 1587 2000 1559 2142.8 1547.2C2285.7 1535.3 2428.3 1539.7 2571.2 1549.7C2714 1559.7 2857 1575.3 2928.5 1583.2L3000 1591L3000 1801L2928.5 1801C2857 1801 2714 1801 2571.2 1801C2428.3 1801 2285.7 1801 2142.8 1801C2000 1801 1857 1801 1714.2 1801C1571.3 1801 1428.7 1801 1285.8 1801C1143 1801 1000 1801 857.2 1801C714.3 1801 571.7 1801 428.8 1801C286 1801 143 1801 71.5 1801L0 1801Z" fill="#007274"></path><path d="M0 1580L71.5 1590.5C143 1601 286 1622 428.8 1624.8C571.7 1627.7 714.3 1612.3 857.2 1607.3C1000 1602.3 1143 1607.7 1285.8 1621.5C1428.7 1635.3 1571.3 1657.7 1714.2 1672.7C1857 1687.7 2000 1695.3 2142.8 1691.2C2285.7 1687 2428.3 1671 2571.2 1654.7C2714 1638.3 2857 1621.7 2928.5 1613.3L3000 1605L3000 1801L2928.5 1801C2857 1801 2714 1801 2571.2 1801C2428.3 1801 2285.7 1801 2142.8 1801C2000 1801 1857 1801 1714.2 1801C1571.3 1801 1428.7 1801 1285.8 1801C1143 1801 1000 1801 857.2 1801C714.3 1801 571.7 1801 428.8 1801C286 1801 143 1801 71.5 1801L0 1801Z" fill="#009473"></path></svg>